<svg xmlns="http://www.w3.org/2000/svg" xmlns:xlink="http://www.w3.org/1999/xlink" width="100%" zoomAndPan="magnify" viewBox="0 0 810 809.999993" height="100%" preserveAspectRatio="xMidYMid meet" version="1.0"><path fill="#0cc0df" d="M 418.652344 464.851562 C 399.25 464.851562 380.273438 457.769531 365.96875 443.441406 C 357.96875 435.464844 357.96875 422.554688 365.945312 414.582031 C 373.917969 406.609375 386.839844 406.609375 394.804688 414.570312 C 408.742188 428.484375 432.929688 426.976562 448.714844 411.167969 L 511.667969 348.210938 C 520.09375 339.824219 524.90625 328.859375 524.90625 318.136719 C 524.90625 311.730469 523.195312 302.4375 515.109375 294.324219 C 506.433594 285.636719 496.472656 284.203125 489.515625 284.554688 C 479.257812 285.019531 469.195312 289.703125 461.199219 297.703125 L 425.082031 333.796875 C 416.640625 325.355469 381.96875 319.164062 372.574219 328.570312 L 432.300781 268.855469 C 447.496094 253.660156 467.101562 244.757812 487.558594 243.777344 C 508.894531 242.800781 528.910156 250.472656 543.90625 265.464844 C 557.957031 279.492188 565.695312 298.207031 565.695312 318.148438 C 565.679688 339.621094 556.5 361.109375 540.476562 377.082031 L 477.535156 440.023438 C 461.085938 456.539062 439.636719 464.851562 418.652344 464.851562 Z M 418.652344 464.851562 " fill-opacity="1" fill-rule="nonzero"/><path fill="#0cc0df" d="M 390.09375 345.148438 C 409.46875 345.148438 428.457031 352.230469 442.789062 366.558594 C 450.773438 374.535156 450.761719 387.445312 442.789062 395.417969 C 434.824219 403.394531 421.902344 403.394531 413.929688 395.417969 C 400 381.515625 375.816406 383.035156 360.015625 398.820312 L 297.0625 461.773438 C 288.648438 470.164062 283.828125 481.128906 283.828125 491.851562 C 283.828125 498.230469 285.535156 507.550781 293.632812 515.664062 C 302.3125 524.328125 312.269531 525.785156 319.226562 525.457031 C 329.488281 524.96875 339.546875 520.285156 347.546875 512.285156 L 383.625 476.21875 C 392.066406 484.644531 426.738281 490.835938 436.144531 481.429688 L 376.417969 541.144531 C 361.234375 556.339844 341.617188 565.242188 321.175781 566.222656 C 299.824219 567.226562 279.808594 559.539062 264.800781 544.535156 C 250.75 530.507812 243.023438 511.792969 243.023438 491.851562 C 243.039062 470.378906 252.207031 448.890625 268.230469 432.917969 L 331.171875 369.976562 C 347.648438 353.488281 369.121094 345.148438 390.09375 345.148438 Z M 390.09375 345.148438 " fill-opacity="1" fill-rule="nonzero"/></svg>