<svg xmlns="http://www.w3.org/2000/svg" xmlns:xlink="http://www.w3.org/1999/xlink" width="100%" zoomAndPan="magnify" viewBox="0 0 810 404.99999" height="100%" preserveAspectRatio="xMidYMid meet" version="1.0"><defs><g/></defs><path stroke-linecap="butt" transform="matrix(2.05455, 0, 0, 2.05455, 44.062603, 141.890763)" fill="none" stroke-linejoin="miter" d="M 13.592115 14.546535 C 17.522036 14.546535 20.389148 15.390698 22.195353 17.077122 C 23.999656 18.765448 24.902758 21.086897 24.902758 24.04527 C 24.902758 25.378059 24.701224 26.651908 24.298155 27.866818 C 23.895086 29.081729 23.239149 30.161649 22.330343 31.106579 C 21.419635 32.051509 20.208528 32.796806 18.695118 33.346273 C 17.181709 33.893838 15.312762 34.167621 13.092081 34.167621 L 10.321934 34.167621 L 10.321934 44.999145 L 3.863326 44.999145 L 3.863326 14.546535 Z M 13.257492 19.837764 L 10.321934 19.837764 L 10.321934 28.878293 L 12.44565 28.878293 C 13.654857 28.878293 14.702455 28.718586 15.592249 28.399173 C 16.480141 28.07976 17.1684 27.579727 17.653223 26.899073 C 18.139948 26.218419 18.38331 25.343836 18.38331 24.273422 C 18.38331 22.775223 17.965031 21.659178 17.132276 20.930993 C 16.299521 20.200906 15.00856 19.837764 13.257492 19.837764 Z M 49.292225 44.999145 L 47.084852 37.751511 L 35.981447 37.751511 L 33.774075 44.999145 L 26.815434 44.999145 L 37.565203 14.421051 L 45.459268 14.421051 L 56.248964 44.999145 Z M 45.542924 32.334798 L 43.335552 25.252575 C 43.194858 24.78106 43.012336 24.172655 42.782283 23.43116 C 42.554131 22.687764 42.324077 21.93106 42.095925 21.159145 C 41.865872 20.389131 41.681449 19.719885 41.542656 19.149505 C 41.403864 19.719885 41.213737 20.423354 40.970374 21.263715 C 40.727012 22.104075 40.495057 22.898805 40.272609 23.649806 C 40.050161 24.398906 39.890454 24.933162 39.79349 25.252575 L 37.607031 32.334798 Z M 71.827954 44.999145 L 65.369347 44.999145 L 65.369347 19.921419 L 57.100732 19.921419 L 57.100732 14.546535 L 80.096569 14.546535 L 80.096569 19.921419 L 71.827954 19.921419 Z M 109.735436 44.999145 L 103.299644 44.999145 L 103.299644 31.855679 L 91.239901 31.855679 L 91.239901 44.999145 L 84.781293 44.999145 L 84.781293 14.546535 L 91.239901 14.546535 L 91.239901 26.482695 L 103.299644 26.482695 L 103.299644 14.546535 L 109.735436 14.546535 Z M 137.811461 40.354347 C 138.505424 40.354347 139.182275 40.285901 139.842015 40.147109 C 140.501755 40.008316 141.157693 39.833399 141.809828 39.626161 L 141.809828 44.354615 C 141.131075 44.660719 140.286912 44.913588 139.27924 45.115122 C 138.273469 45.316656 137.172635 45.417424 135.978639 45.417424 C 134.588812 45.417424 133.343481 45.191173 132.238845 44.740572 C 131.136109 44.28807 130.26723 43.502847 129.636009 42.384901 C 129.002886 41.268857 128.687276 39.709817 128.687276 37.709683 L 128.687276 26.482695 L 125.647148 26.482695 L 125.647148 23.794302 L 129.145481 21.670586 L 130.978304 16.753907 L 135.041314 16.753907 L 135.041314 21.712414 L 141.560762 21.712414 L 141.560762 26.482695 L 135.041314 26.482695 L 135.041314 37.709683 C 135.041314 38.597575 135.294182 39.261118 135.801821 39.698409 C 136.307558 40.135701 136.978706 40.354347 137.811461 40.354347 Z M 167.680382 33.313951 C 167.680382 35.258948 167.419908 36.979596 166.898961 38.479697 C 166.378013 39.979797 165.621308 41.247943 164.628847 42.282233 C 163.636385 43.316522 162.440487 44.097944 161.044956 44.624595 C 159.649426 45.153147 158.077077 45.417424 156.32791 45.417424 C 154.689017 45.417424 153.185114 45.153147 151.818103 44.624595 C 150.44919 44.097944 149.262798 43.316522 148.255126 42.282233 C 147.249356 41.247943 146.471737 39.979797 145.92227 38.479697 C 145.374705 36.979596 145.100923 35.258948 145.100923 33.313951 C 145.100923 30.732029 145.559128 28.54367 146.475539 26.752675 C 147.391951 24.961681 148.696221 23.600373 150.39025 22.670653 C 152.08428 21.739032 154.105328 21.275122 156.453394 21.275122 C 158.632247 21.275122 160.565837 21.739032 162.254163 22.670653 C 163.940588 23.600373 165.267673 24.961681 166.231615 26.752675 C 167.19746 28.54367 167.680382 30.732029 167.680382 33.313951 Z M 151.578543 33.313951 C 151.578543 34.842571 151.745854 36.125927 152.078576 37.167822 C 152.411298 38.209716 152.932246 38.99494 153.641419 39.521591 C 154.34869 40.050144 155.272707 40.312519 156.411566 40.312519 C 157.535216 40.312519 158.449725 40.050144 159.149392 39.521591 C 159.85096 38.99494 160.364302 38.209716 160.69132 37.167822 C 161.018339 36.125927 161.181848 34.842571 161.181848 33.313951 C 161.181848 31.772023 161.018339 30.49247 160.69132 29.471489 C 160.364302 28.450508 159.847157 27.682395 159.139886 27.169053 C 158.430713 26.655711 157.508598 26.39904 156.369738 26.39904 C 154.689017 26.39904 153.470305 26.975124 152.7136 28.127292 C 151.956895 29.279461 151.578543 31.009614 151.578543 33.313951 Z M 151.578543 33.313951 " stroke="#1397ac" stroke-width="5.653338" stroke-opacity="1" stroke-miterlimit="4"/><path stroke-linecap="butt" transform="matrix(2.05455, 0, 0, 2.05455, 44.062603, 141.890763)" fill="none" stroke-linejoin="miter" d="M 211.514116 18.889031 C 211.514116 17.400338 212.711915 16.160711 214.200608 16.160711 C 215.700708 16.160711 216.940335 17.400338 216.940335 18.889031 C 216.940335 20.389131 215.700708 21.577424 214.200608 21.577424 C 212.711915 21.577424 211.514116 20.389131 211.514116 18.889031 Z M 208.702141 18.889031 C 208.702141 21.96148 211.139566 24.398906 214.200608 24.398906 C 217.273057 24.398906 219.75231 21.96148 219.75231 18.889031 C 219.75231 15.816582 217.273057 13.348736 214.200608 13.348736 C 211.139566 13.348736 208.702141 15.816582 208.702141 18.889031 Z M 182.206069 32.888067 L 187.246331 38.042405 C 187.96501 36.939669 188.995498 35.397741 189.974651 34.074459 C 191.725718 31.732096 194.798168 27.513183 196.463678 25.378059 C 197.691897 23.83613 198.421984 23.83613 199.910677 25.117585 C 201.494433 26.440867 205.11825 30.408814 207.764815 33.564919 C 210.283996 36.511884 214.15878 41.249844 216.887099 44.740572 L 221.459649 39.791571 C 218.3872 36.25141 213.826058 31.387967 210.960847 28.27369 C 208.316183 25.419886 205.11825 22.045136 202.264447 19.619118 C 198.766114 16.670251 196.463678 16.972553 193.90267 20.003174 C 190.995631 23.503408 187.674116 27.680494 185.704403 29.636899 C 184.424849 30.918354 183.487524 31.813851 182.206069 32.888067 Z M 258.097084 22.305609 C 257.501987 22.566083 256.346016 22.733395 254.982807 22.733395 L 233.871127 22.733395 C 232.547844 22.733395 230.715022 22.649739 228.924027 22.472921 L 228.924027 28.022722 C 230.715022 27.845904 232.840639 27.804077 233.871127 27.804077 L 254.471366 27.804077 C 253.701352 30.199674 252.37807 32.846239 250.077535 35.188602 C 246.837775 38.512018 241.713857 41.3335 235.276164 42.656782 L 239.536905 47.478398 C 245.004952 45.93647 250.461591 43.04274 254.773667 38.261051 C 257.9716 34.72089 259.804422 30.585632 261.085877 26.440867 C 261.251287 25.971254 261.595417 25.201241 261.897719 24.649873 Z M 232.840639 17.786295 C 234.078365 17.70264 235.913088 17.649404 237.276298 17.649404 L 253.617696 17.649404 C 255.159625 17.649404 257.159759 17.70264 258.31573 17.786295 L 258.31573 12.276421 C 257.117931 12.453239 255.024635 12.495066 253.701352 12.495066 L 237.276298 12.495066 C 235.829433 12.495066 234.038438 12.453239 232.840639 12.276421 Z M 296.825913 18.889031 C 296.825913 17.400338 298.023712 16.160711 299.512405 16.160711 C 301.012506 16.160711 302.252132 17.400338 302.252132 18.889031 C 302.252132 20.389131 301.012506 21.577424 299.512405 21.577424 C 298.023712 21.577424 296.825913 20.389131 296.825913 18.889031 Z M 294.013938 18.889031 C 294.013938 21.96148 296.451364 24.398906 299.512405 24.398906 C 302.584854 24.398906 305.064108 21.96148 305.064108 18.889031 C 305.064108 15.816582 302.584854 13.348736 299.512405 13.348736 C 296.451364 13.348736 294.013938 15.816582 294.013938 18.889031 Z M 267.517867 32.888067 L 272.558128 38.042405 C 273.276808 36.939669 274.309196 35.397741 275.288349 34.074459 C 277.037516 31.732096 280.109965 27.513183 281.775476 25.378059 C 283.005596 23.83613 283.733782 23.83613 285.224376 25.117585 C 286.806231 26.440867 290.431949 30.408814 293.076613 33.564919 C 295.597694 36.511884 299.470577 41.249844 302.200798 44.740572 L 306.771446 39.791571 C 303.698997 36.25141 299.137855 31.387967 296.274546 28.27369 C 293.627981 25.419886 290.431949 22.045136 287.578146 19.619118 C 284.077911 16.670251 281.775476 16.972553 279.214468 20.003174 C 276.307429 23.503408 272.985914 27.680494 271.018101 29.636899 C 269.736647 30.918354 268.799321 31.813851 267.517867 32.888067 Z M 343.408881 22.305609 C 342.815686 22.566083 341.659715 22.733395 340.294604 22.733395 L 319.182924 22.733395 C 317.859641 22.733395 316.026819 22.649739 314.235825 22.472921 L 314.235825 28.022722 C 316.026819 27.845904 318.152437 27.804077 319.182924 27.804077 L 339.785064 27.804077 C 339.013149 30.199674 337.689867 32.846239 335.389333 35.188602 C 332.149572 38.512018 327.025655 41.3335 320.589862 42.656782 L 324.848703 47.478398 C 330.31675 45.93647 335.77529 43.04274 340.085465 38.261051 C 343.283397 34.72089 345.11622 30.585632 346.397674 26.440867 C 346.564986 25.971254 346.907214 25.201241 347.209516 24.649873 Z M 318.152437 17.786295 C 319.392063 17.70264 321.224886 17.649404 322.588095 17.649404 L 338.929494 17.649404 C 340.471422 17.649404 342.471556 17.70264 343.627527 17.786295 L 343.627527 12.276421 C 342.429728 12.453239 340.336432 12.495066 339.013149 12.495066 L 322.588095 12.495066 C 321.14123 12.495066 319.350236 12.453239 318.152437 12.276421 Z M 318.152437 17.786295 " stroke="#1397ac" stroke-width="5.653338" stroke-opacity="1" stroke-miterlimit="4"/><g fill="#ffffff" fill-opacity="1"><g transform="translate(44.126808, 234.345508)"><g><path d="M 27.859375 -62.5625 C 35.929688 -62.5625 41.820312 -60.828125 45.53125 -57.359375 C 49.238281 -53.898438 51.09375 -49.128906 51.09375 -43.046875 C 51.09375 -40.304688 50.675781 -37.6875 49.84375 -35.1875 C 49.019531 -32.695312 47.671875 -30.484375 45.796875 -28.546875 C 43.929688 -26.609375 41.441406 -25.070312 38.328125 -23.9375 C 35.222656 -22.8125 31.390625 -22.25 26.828125 -22.25 L 21.140625 -22.25 L 21.140625 0 L 7.875 0 L 7.875 -62.5625 Z M 27.171875 -51.6875 L 21.140625 -51.6875 L 21.140625 -33.125 L 25.5 -33.125 C 27.988281 -33.125 30.144531 -33.453125 31.96875 -34.109375 C 33.789062 -34.765625 35.203125 -35.789062 36.203125 -37.1875 C 37.203125 -38.582031 37.703125 -40.378906 37.703125 -42.578125 C 37.703125 -45.660156 36.84375 -47.945312 35.125 -49.4375 C 33.414062 -50.9375 30.765625 -51.6875 27.171875 -51.6875 Z M 27.171875 -51.6875 "/></g></g></g><g fill="#ffffff" fill-opacity="1"><g transform="translate(99.158185, 234.345508)"><g><path d="M 46.171875 0 L 41.640625 -14.890625 L 18.828125 -14.890625 L 14.296875 0 L 0 0 L 22.078125 -62.828125 L 38.296875 -62.828125 L 60.46875 0 Z M 38.46875 -26.015625 L 33.9375 -40.5625 C 33.644531 -41.53125 33.265625 -42.78125 32.796875 -44.3125 C 32.328125 -45.84375 31.859375 -47.398438 31.390625 -48.984375 C 30.921875 -50.566406 30.539062 -51.941406 30.25 -53.109375 C 29.96875 -51.941406 29.578125 -50.492188 29.078125 -48.765625 C 28.578125 -47.035156 28.097656 -45.398438 27.640625 -43.859375 C 27.179688 -42.316406 26.851562 -41.21875 26.65625 -40.5625 L 22.171875 -26.015625 Z M 38.46875 -26.015625 "/></g></g></g><g fill="#ffffff" fill-opacity="1"><g transform="translate(159.624232, 234.345508)"><g><path d="M 32.015625 0 L 18.75 0 L 18.75 -51.515625 L 1.75 -51.515625 L 1.75 -62.5625 L 49 -62.5625 L 49 -51.515625 L 32.015625 -51.515625 Z M 32.015625 0 "/></g></g></g><g fill="#ffffff" fill-opacity="1"><g transform="translate(210.376341, 234.345508)"><g><path d="M 59.140625 0 L 45.921875 0 L 45.921875 -27 L 21.140625 -27 L 21.140625 0 L 7.875 0 L 7.875 -62.5625 L 21.140625 -62.5625 L 21.140625 -38.046875 L 45.921875 -38.046875 L 45.921875 -62.5625 L 59.140625 -62.5625 Z M 59.140625 0 "/></g></g></g><g fill="#ffffff" fill-opacity="1"><g transform="translate(277.432459, 234.345508)"><g/></g></g><g fill="#ffffff" fill-opacity="1"><g transform="translate(300.198161, 234.345508)"><g><path d="M 27 -9.546875 C 28.425781 -9.546875 29.816406 -9.6875 31.171875 -9.96875 C 32.523438 -10.257812 33.875 -10.617188 35.21875 -11.046875 L 35.21875 -1.328125 C 33.820312 -0.703125 32.085938 -0.179688 30.015625 0.234375 C 27.953125 0.648438 25.691406 0.859375 23.234375 0.859375 C 20.378906 0.859375 17.816406 0.394531 15.546875 -0.53125 C 13.285156 -1.457031 11.503906 -3.066406 10.203125 -5.359375 C 8.910156 -7.660156 8.265625 -10.867188 8.265625 -14.984375 L 8.265625 -38.046875 L 2.015625 -38.046875 L 2.015625 -43.5625 L 9.203125 -47.921875 L 12.96875 -58.03125 L 21.3125 -58.03125 L 21.3125 -47.84375 L 34.703125 -47.84375 L 34.703125 -38.046875 L 21.3125 -38.046875 L 21.3125 -14.984375 C 21.3125 -13.148438 21.832031 -11.785156 22.875 -10.890625 C 23.914062 -9.992188 25.289062 -9.546875 27 -9.546875 Z M 27 -9.546875 "/></g></g></g><g fill="#ffffff" fill-opacity="1"><g transform="translate(338.240848, 234.345508)"><g><path d="M 50.328125 -24 C 50.328125 -20.007812 49.789062 -16.472656 48.71875 -13.390625 C 47.644531 -10.304688 46.085938 -7.703125 44.046875 -5.578125 C 42.015625 -3.453125 39.5625 -1.847656 36.6875 -0.765625 C 33.820312 0.316406 30.59375 0.859375 27 0.859375 C 23.632812 0.859375 20.546875 0.316406 17.734375 -0.765625 C 14.921875 -1.847656 12.476562 -3.453125 10.40625 -5.578125 C 8.34375 -7.703125 6.75 -10.304688 5.625 -13.390625 C 4.5 -16.472656 3.9375 -20.007812 3.9375 -24 C 3.9375 -29.3125 4.875 -33.804688 6.75 -37.484375 C 8.632812 -41.160156 11.316406 -43.953125 14.796875 -45.859375 C 18.285156 -47.773438 22.441406 -48.734375 27.265625 -48.734375 C 31.742188 -48.734375 35.710938 -47.773438 39.171875 -45.859375 C 42.640625 -43.953125 45.363281 -41.160156 47.34375 -37.484375 C 49.332031 -33.804688 50.328125 -29.3125 50.328125 -24 Z M 17.25 -24 C 17.25 -20.863281 17.585938 -18.222656 18.265625 -16.078125 C 18.953125 -13.941406 20.023438 -12.332031 21.484375 -11.25 C 22.941406 -10.164062 24.835938 -9.625 27.171875 -9.625 C 29.484375 -9.625 31.359375 -10.164062 32.796875 -11.25 C 34.242188 -12.332031 35.300781 -13.941406 35.96875 -16.078125 C 36.632812 -18.222656 36.96875 -20.863281 36.96875 -24 C 36.96875 -27.164062 36.632812 -29.796875 35.96875 -31.890625 C 35.300781 -33.992188 34.238281 -35.570312 32.78125 -36.625 C 31.320312 -37.6875 29.425781 -38.21875 27.09375 -38.21875 C 23.632812 -38.21875 21.128906 -37.03125 19.578125 -34.65625 C 18.023438 -32.289062 17.25 -28.738281 17.25 -24 Z M 17.25 -24 "/></g></g></g><g fill="#ffffff" fill-opacity="1"><g transform="translate(392.501956, 234.345508)"><g/></g></g><g fill="#ffffff" fill-opacity="1"><g transform="translate(415.267664, 234.345508)"><g><path d="M 63.359375 -53.640625 C 63.359375 -56.703125 65.8125 -59.25 68.890625 -59.25 C 71.953125 -59.25 74.5 -56.703125 74.5 -53.640625 C 74.5 -50.5625 71.953125 -48.109375 68.890625 -48.109375 C 65.8125 -48.109375 63.359375 -50.5625 63.359375 -53.640625 Z M 57.578125 -53.640625 C 57.578125 -47.328125 62.578125 -42.328125 68.890625 -42.328125 C 75.203125 -42.328125 80.28125 -47.328125 80.28125 -53.640625 C 80.28125 -59.953125 75.203125 -65.03125 68.890625 -65.03125 C 62.578125 -65.03125 57.578125 -59.953125 57.578125 -53.640625 Z M 3.15625 -24.890625 L 13.5 -14.28125 C 14.984375 -16.5625 17.09375 -19.71875 19.109375 -22.4375 C 22.703125 -27.25 29.015625 -35.9375 32.421875 -40.3125 C 34.96875 -43.46875 36.453125 -43.46875 39.53125 -40.84375 C 42.765625 -38.125 50.21875 -29.96875 55.65625 -23.484375 C 60.828125 -17.4375 68.796875 -7.71875 74.40625 -0.53125 L 83.78125 -10.6875 C 77.46875 -17.96875 68.09375 -27.953125 62.21875 -34.359375 C 56.796875 -40.234375 50.21875 -47.15625 44.34375 -52.140625 C 37.15625 -58.1875 32.421875 -57.578125 27.171875 -51.359375 C 21.203125 -44.171875 14.375 -35.578125 10.34375 -31.546875 C 7.71875 -28.921875 5.78125 -27.078125 3.15625 -24.890625 Z M 3.15625 -24.890625 "/></g></g></g><g fill="#ffffff" fill-opacity="1"><g transform="translate(502.906933, 234.345508)"><g><path d="M 71.421875 -46.625 C 70.203125 -46.09375 67.828125 -45.75 65.03125 -45.75 L 21.640625 -45.75 C 18.9375 -45.75 15.15625 -45.921875 11.484375 -46.28125 L 11.484375 -34.875 C 15.15625 -35.234375 19.546875 -35.3125 21.640625 -35.3125 L 63.984375 -35.3125 C 62.40625 -30.40625 59.6875 -24.984375 54.953125 -20.15625 C 48.296875 -13.328125 37.765625 -7.53125 24.546875 -4.8125 L 33.296875 5.078125 C 44.515625 1.921875 55.734375 -4.03125 64.59375 -13.84375 C 71.171875 -21.125 74.9375 -29.625 77.5625 -38.125 C 77.90625 -39.09375 78.609375 -40.671875 79.234375 -41.796875 Z M 19.546875 -55.921875 C 22.078125 -56.09375 25.859375 -56.171875 28.65625 -56.171875 L 62.21875 -56.171875 C 65.375 -56.171875 69.5 -56.09375 71.859375 -55.921875 L 71.859375 -67.21875 C 69.40625 -66.875 65.109375 -66.78125 62.40625 -66.78125 L 28.65625 -66.78125 C 25.671875 -66.78125 22 -66.875 19.546875 -67.21875 Z M 19.546875 -55.921875 "/></g></g></g><g fill="#ffffff" fill-opacity="1"><g transform="translate(590.54617, 234.345508)"><g><path d="M 63.359375 -53.640625 C 63.359375 -56.703125 65.8125 -59.25 68.890625 -59.25 C 71.953125 -59.25 74.5 -56.703125 74.5 -53.640625 C 74.5 -50.5625 71.953125 -48.109375 68.890625 -48.109375 C 65.8125 -48.109375 63.359375 -50.5625 63.359375 -53.640625 Z M 57.578125 -53.640625 C 57.578125 -47.328125 62.578125 -42.328125 68.890625 -42.328125 C 75.203125 -42.328125 80.28125 -47.328125 80.28125 -53.640625 C 80.28125 -59.953125 75.203125 -65.03125 68.890625 -65.03125 C 62.578125 -65.03125 57.578125 -59.953125 57.578125 -53.640625 Z M 3.15625 -24.890625 L 13.5 -14.28125 C 14.984375 -16.5625 17.09375 -19.71875 19.109375 -22.4375 C 22.703125 -27.25 29.015625 -35.9375 32.421875 -40.3125 C 34.96875 -43.46875 36.453125 -43.46875 39.53125 -40.84375 C 42.765625 -38.125 50.21875 -29.96875 55.65625 -23.484375 C 60.828125 -17.4375 68.796875 -7.71875 74.40625 -0.53125 L 83.78125 -10.6875 C 77.46875 -17.96875 68.09375 -27.953125 62.21875 -34.359375 C 56.796875 -40.234375 50.21875 -47.15625 44.34375 -52.140625 C 37.15625 -58.1875 32.421875 -57.578125 27.171875 -51.359375 C 21.203125 -44.171875 14.375 -35.578125 10.34375 -31.546875 C 7.71875 -28.921875 5.78125 -27.078125 3.15625 -24.890625 Z M 3.15625 -24.890625 "/></g></g></g><g fill="#ffffff" fill-opacity="1"><g transform="translate(678.185439, 234.345508)"><g><path d="M 71.421875 -46.625 C 70.203125 -46.09375 67.828125 -45.75 65.03125 -45.75 L 21.640625 -45.75 C 18.9375 -45.75 15.15625 -45.921875 11.484375 -46.28125 L 11.484375 -34.875 C 15.15625 -35.234375 19.546875 -35.3125 21.640625 -35.3125 L 63.984375 -35.3125 C 62.40625 -30.40625 59.6875 -24.984375 54.953125 -20.15625 C 48.296875 -13.328125 37.765625 -7.53125 24.546875 -4.8125 L 33.296875 5.078125 C 44.515625 1.921875 55.734375 -4.03125 64.59375 -13.84375 C 71.171875 -21.125 74.9375 -29.625 77.5625 -38.125 C 77.90625 -39.09375 78.609375 -40.671875 79.234375 -41.796875 Z M 19.546875 -55.921875 C 22.078125 -56.09375 25.859375 -56.171875 28.65625 -56.171875 L 62.21875 -56.171875 C 65.375 -56.171875 69.5 -56.09375 71.859375 -55.921875 L 71.859375 -67.21875 C 69.40625 -66.875 65.109375 -66.78125 62.40625 -66.78125 L 28.65625 -66.78125 C 25.671875 -66.78125 22 -66.875 19.546875 -67.21875 Z M 19.546875 -55.921875 "/></g></g></g></svg>