<svg xmlns="http://www.w3.org/2000/svg" xmlns:xlink="http://www.w3.org/1999/xlink" width="100%" zoomAndPan="magnify" viewBox="0 0 810 809.999993" height="100%" preserveAspectRatio="xMidYMid meet" version="1.0"><defs><clipPath id="ab218aa8d8"><path d="M 214.425781 313 L 375 313 L 375 472 L 214.425781 472 Z M 214.425781 313 " clip-rule="nonzero"/></clipPath></defs><path fill="#f4e5e6" d="M 541.65625 220.351562 C 532.09375 225.800781 520.277344 228.675781 508.664062 231.757812 C 503.464844 233.351562 498.378906 232.996094 501.054688 224.972656 C 513.898438 180.363281 536.058594 142.585938 578.96875 120.695312 C 589.039062 115.609375 590.636719 116.222656 591.453125 127.6875 C 595.359375 166.339844 576.140625 202.210938 541.65625 220.351562 Z M 541.65625 220.351562 " fill-opacity="1" fill-rule="evenodd"/><g clip-path="url(#ab218aa8d8)"><path fill="#ffdde0" d="M 358.59375 471.351562 C 281.085938 469.757812 214.742188 402.230469 214.945312 326.425781 C 214.945312 308.996094 227.328125 313.214844 236.375 315.371094 C 272.046875 322.566406 311.097656 352.164062 336.546875 378.128906 C 360.183594 402.585938 365.222656 419.1875 373.546875 451.613281 C 377.507812 466.316406 373.445312 473.617188 358.59375 471.351562 Z M 358.59375 471.351562 " fill-opacity="1" fill-rule="evenodd"/></g><path fill="#eb859f" d="M 514.878906 666.4375 C 498.175781 678.878906 473.761719 684.835938 448.832031 691.621094 C 439.226562 694.144531 435.066406 691.320312 439.015625 680.988281 C 458.757812 630.78125 492.105469 597.832031 548.183594 592.074219 C 562.621094 590.589844 565.910156 593.875 561.078125 607.550781 C 552.910156 630.15625 537.125 650.71875 514.878906 666.4375 Z M 514.878906 666.4375 " fill-opacity="1" fill-rule="evenodd"/><path fill="#f4a4ae" d="M 246.347656 413.175781 C 246.347656 413.175781 324.148438 444.730469 373.902344 448.121094 C 390.5625 449.148438 399.964844 460.050781 376.324219 470.683594 C 367.84375 474.542969 356.277344 474.746094 347.238281 474.074219 C 307.859375 471.097656 272.96875 439.484375 246.347656 413.175781 Z M 246.347656 413.175781 " fill-opacity="1" fill-rule="evenodd"/></svg>