<svg xmlns="http://www.w3.org/2000/svg" xmlns:xlink="http://www.w3.org/1999/xlink" width="100%" zoomAndPan="magnify" viewBox="0 0 810 809.999993" height="100%" preserveAspectRatio="xMidYMid meet" version="1.0"><defs><clipPath id="89ad16dd9d"><path d="M 214.425781 313 L 375 313 L 375 472 L 214.425781 472 Z M 214.425781 313 " clip-rule="nonzero"/></clipPath></defs><g clip-path="url(#89ad16dd9d)"><path fill="#ffdde0" d="M 358.59375 471.351562 C 281.085938 469.757812 214.742188 402.230469 214.945312 326.425781 C 214.945312 308.996094 227.328125 313.214844 236.375 315.371094 C 272.046875 322.566406 311.097656 352.164062 336.546875 378.128906 C 360.183594 402.585938 365.222656 419.1875 373.546875 451.613281 C 377.507812 466.316406 373.445312 473.617188 358.59375 471.351562 Z M 358.59375 471.351562 " fill-opacity="1" fill-rule="evenodd"/></g><path fill="#f4a4ae" d="M 246.347656 413.175781 C 246.347656 413.175781 324.148438 444.730469 373.902344 448.121094 C 390.5625 449.148438 399.964844 460.050781 376.324219 470.683594 C 367.84375 474.542969 356.277344 474.746094 347.238281 474.074219 C 307.859375 471.097656 272.96875 439.484375 246.347656 413.175781 Z M 246.347656 413.175781 " fill-opacity="1" fill-rule="evenodd"/></svg>