<svg xmlns="http://www.w3.org/2000/svg" xmlns:xlink="http://www.w3.org/1999/xlink" width="100%" zoomAndPan="magnify" viewBox="0 0 810 809.999993" height="100%" preserveAspectRatio="xMidYMid meet" version="1.0"><defs><clipPath id="e03cd24ac4"><path d="M 81 332.800781 L 726 332.800781 L 726 477.550781 L 81 477.550781 Z M 81 332.800781 " clip-rule="nonzero"/></clipPath><clipPath id="6022798b99"><path d="M 484 332.800781 L 726 332.800781 L 726 477.550781 L 484 477.550781 Z M 484 332.800781 " clip-rule="nonzero"/></clipPath><clipPath id="2c25a8dd9f"><path d="M 81 370 L 98 370 L 98 439 L 81 439 Z M 81 370 " clip-rule="nonzero"/></clipPath><clipPath id="bf28b6bd3a"><path d="M 81 371 L 97 371 L 97 439 L 81 439 Z M 81 371 " clip-rule="nonzero"/></clipPath><clipPath id="a92358ada7"><path d="M 564 332.800781 L 726 332.800781 L 726 464 L 564 464 Z M 564 332.800781 " clip-rule="nonzero"/></clipPath></defs><g clip-path="url(#e03cd24ac4)"><path fill="#1f4266" d="M 98.820312 449.277344 C 97 450.328125 95.179688 451.382812 93.351562 452.4375 C 93.351562 447.554688 93.351562 442.667969 93.351562 437.785156 C 93.527344 437.6875 93.710938 437.597656 93.871094 437.488281 L 94.0625 437.339844 C 94.382812 437.113281 94.683594 436.867188 94.96875 436.597656 L 95.335938 436.210938 C 95.542969 435.988281 95.738281 435.753906 95.917969 435.511719 L 96.234375 435.070312 C 96.480469 434.695312 96.699219 434.304688 96.882812 433.894531 C 97.320312 432.886719 97.566406 431.78125 97.566406 430.621094 L 97.566406 378.699219 C 97.566406 375.632812 95.855469 372.972656 93.351562 371.546875 C 93.351562 366.742188 93.351562 361.9375 93.351562 357.132812 C 102.691406 362.53125 112.023438 367.929688 121.363281 373.328125 C 135.386719 381.4375 149.410156 389.546875 163.433594 397.65625 L 163.433594 411.914062 C 159.292969 414.308594 155.148438 416.707031 151.007812 419.101562 C 133.609375 429.160156 116.21875 439.21875 98.820312 449.277344 Z M 564.710938 332.863281 L 564.710938 388.976562 L 484.613281 388.976562 L 484.613281 392.089844 L 199.550781 392.089844 L 199.550781 388.980469 L 167.894531 388.980469 C 163.292969 386.320312 158.699219 383.664062 154.097656 381.003906 C 136.703125 370.941406 119.308594 360.886719 101.914062 350.828125 C 97.921875 348.519531 93.925781 346.210938 89.9375 343.902344 C 86.667969 342.011719 85.203125 346.429688 85.203125 348.675781 C 85.203125 356.296875 85.203125 363.910156 85.203125 371.527344 L 84.914062 371.703125 C 84.726562 371.824219 84.542969 371.953125 84.355469 372.089844 C 84.148438 372.246094 83.945312 372.414062 83.75 372.589844 L 83.300781 373.007812 C 82.992188 373.328125 82.703125 373.667969 82.449219 374.039062 L 82.273438 374.328125 C 82.078125 374.648438 81.898438 374.96875 81.738281 375.308594 L 81.554688 375.765625 C 81.429688 376.085938 81.328125 376.417969 81.246094 376.753906 L 81.140625 377.199219 C 81.050781 377.6875 80.988281 378.1875 80.988281 378.699219 L 80.988281 430.621094 C 80.988281 433.683594 82.703125 436.34375 85.203125 437.769531 C 85.203125 443.132812 85.203125 448.492188 85.203125 453.851562 C 85.203125 456.148438 85.203125 458.445312 85.203125 460.742188 C 85.203125 463.875 88.308594 468.199219 91.714844 466.230469 C 102.625 459.917969 113.542969 453.609375 124.453125 447.296875 C 139.390625 438.660156 154.332031 430.023438 169.265625 421.386719 L 199.550781 421.386719 L 199.550781 418.277344 L 484.613281 418.277344 L 484.613281 421.386719 L 564.710938 421.386719 L 564.710938 477.503906 L 649.636719 477.503906 C 649.636719 477.503906 664.496094 473.261719 681.789062 461.175781 L 681.9375 461.074219 C 682.910156 460.394531 683.886719 459.6875 684.871094 458.953125 L 685.171875 458.730469 C 686.101562 458.039062 687.035156 457.316406 687.96875 456.578125 L 688.4375 456.207031 C 689.324219 455.5 690.214844 454.769531 691.105469 454.019531 C 691.308594 453.847656 691.511719 453.679688 691.714844 453.503906 C 692.554688 452.789062 693.394531 452.042969 694.230469 451.289062 C 694.484375 451.058594 694.738281 450.84375 694.988281 450.609375 C 695.78125 449.886719 696.566406 449.136719 697.351562 448.378906 C 697.648438 448.09375 697.945312 447.816406 698.242188 447.523438 C 698.984375 446.792969 699.722656 446.035156 700.460938 445.273438 C 700.789062 444.929688 701.125 444.59375 701.453125 444.246094 C 702.152344 443.507812 702.84375 442.734375 703.53125 441.964844 C 703.890625 441.566406 704.253906 441.175781 704.609375 440.765625 C 705.261719 440.015625 705.910156 439.234375 706.554688 438.457031 C 706.933594 438 707.320312 437.554688 707.699219 437.082031 C 708.308594 436.320312 708.910156 435.523438 709.511719 434.734375 C 709.90625 434.21875 710.304688 433.71875 710.691406 433.191406 C 711.277344 432.40625 711.839844 431.585938 712.410156 430.769531 C 712.800781 430.210938 713.199219 429.664062 713.589844 429.089844 C 714.140625 428.269531 714.671875 427.417969 715.214844 426.570312 C 715.59375 425.96875 715.988281 425.382812 716.367188 424.765625 C 716.890625 423.90625 717.394531 423.007812 717.910156 422.121094 C 718.273438 421.484375 718.648438 420.867188 719.007812 420.21875 C 719.527344 419.28125 720.015625 418.304688 720.515625 417.335938 C 720.84375 416.703125 721.183594 416.089844 721.503906 415.445312 C 722.035156 414.363281 722.539062 413.242188 723.046875 412.125 C 723.308594 411.554688 723.578125 411.011719 723.828125 410.433594 C 724.574219 408.722656 725.296875 406.972656 725.976562 405.183594 C 721.242188 392.761719 714.921875 382.316406 707.9375 373.574219 C 683.007812 342.351562 649.636719 332.863281 649.636719 332.863281 L 564.710938 332.863281 " fill-opacity="1" fill-rule="nonzero"/></g><path fill="#f7972e" d="M 93.351562 371.546875 C 93.351562 366.742188 93.351562 361.9375 93.351562 357.132812 C 102.691406 362.53125 112.023438 367.929688 121.363281 373.328125 C 135.386719 381.4375 149.410156 389.546875 163.433594 397.65625 L 163.433594 388.976562 L 167.894531 388.976562 C 163.292969 386.320312 158.699219 383.664062 154.097656 381.003906 C 136.703125 370.941406 119.308594 360.886719 101.914062 350.828125 C 97.921875 348.519531 93.925781 346.210938 89.9375 343.902344 C 86.667969 342.011719 85.203125 346.425781 85.203125 348.675781 C 85.203125 356.296875 85.203125 363.925781 85.203125 371.546875 C 86.414062 370.855469 87.792969 370.429688 89.28125 370.429688 C 90.765625 370.429688 92.140625 370.855469 93.351562 371.546875 " fill-opacity="1" fill-rule="nonzero"/><path fill="#f7972e" d="M 163.433594 411.914062 C 159.292969 414.308594 155.148438 416.707031 151.007812 419.101562 C 133.609375 429.160156 116.21875 439.21875 98.820312 449.277344 C 97 450.328125 95.179688 451.382812 93.351562 452.4375 C 93.351562 447.550781 93.351562 442.660156 93.351562 437.769531 C 92.140625 438.460938 90.765625 438.886719 89.28125 438.886719 C 87.792969 438.886719 86.414062 438.460938 85.203125 437.769531 C 85.203125 443.128906 85.203125 448.492188 85.203125 453.851562 C 85.203125 456.148438 85.203125 458.445312 85.203125 460.742188 C 85.203125 463.875 88.308594 468.199219 91.714844 466.230469 C 102.625 459.917969 113.542969 453.609375 124.453125 447.296875 C 139.390625 438.660156 154.332031 430.023438 169.265625 421.386719 L 163.433594 421.386719 L 163.433594 411.914062 " fill-opacity="1" fill-rule="nonzero"/><path fill="#c87242" d="M 199.550781 392.089844 L 199.550781 418.277344 L 484.613281 418.277344 L 484.613281 392.089844 L 199.550781 392.089844 " fill-opacity="1" fill-rule="nonzero"/><path fill="#f7972e" d="M 199.550781 388.976562 L 163.433594 388.976562 L 163.433594 421.386719 L 199.550781 421.386719 L 199.550781 388.976562 " fill-opacity="1" fill-rule="nonzero"/><g clip-path="url(#6022798b99)"><path fill="#f7972e" d="M 564.710938 388.976562 L 484.613281 388.976562 L 484.613281 421.386719 L 564.710938 421.386719 L 564.710938 477.503906 L 649.636719 477.503906 C 649.636719 477.503906 704.3125 461.957031 725.976562 405.183594 C 704.3125 348.40625 649.636719 332.863281 649.636719 332.863281 L 564.710938 332.863281 L 564.710938 388.976562 " fill-opacity="1" fill-rule="nonzero"/></g><g clip-path="url(#2c25a8dd9f)"><path fill="#df2a3a" d="M 93.351562 437.769531 C 95.855469 436.34375 97.566406 433.683594 97.566406 430.617188 L 97.566406 378.699219 C 97.566406 375.632812 95.855469 372.972656 93.351562 371.546875 C 92.140625 370.855469 90.765625 370.429688 89.28125 370.429688 C 87.792969 370.429688 86.414062 370.855469 85.203125 371.546875 C 82.703125 372.972656 80.988281 375.632812 80.988281 378.699219 L 80.988281 430.617188 C 80.988281 433.683594 82.703125 436.34375 85.203125 437.769531 C 86.414062 438.460938 87.792969 438.886719 89.28125 438.886719 C 90.765625 438.886719 92.140625 438.460938 93.351562 437.769531 " fill-opacity="1" fill-rule="nonzero"/></g><path fill="#9c4c22" d="M 484.613281 398.050781 L 484.613281 392.089844 L 199.550781 392.089844 L 199.550781 398.050781 L 484.613281 398.050781 " fill-opacity="1" fill-rule="nonzero"/><path fill="#f27c1e" d="M 484.613281 402.074219 L 564.710938 402.074219 L 564.710938 388.976562 L 484.613281 388.976562 L 484.613281 402.074219 " fill-opacity="1" fill-rule="nonzero"/><path fill="#f27c1e" d="M 191.132812 394.804688 C 183.226562 394.804688 175.320312 394.804688 167.410156 394.804688 C 166.484375 394.804688 165.910156 392.058594 167.074219 392.058594 C 168.191406 392.058594 169.3125 392.058594 170.429688 392.058594 C 178.335938 392.058594 186.246094 392.058594 194.152344 392.058594 C 195.078125 392.058594 195.648438 394.804688 194.488281 394.804688 C 193.371094 394.804688 192.25 394.804688 191.132812 394.804688 Z M 199.550781 392.089844 L 199.550781 388.976562 L 163.433594 388.976562 L 163.433594 396.59375 C 165.550781 395.691406 167.832031 395.175781 170.226562 395.175781 C 180.957031 395.175781 189.65625 405.109375 189.65625 417.363281 C 189.65625 418.742188 189.535156 420.078125 189.324219 421.386719 L 199.550781 421.386719 L 199.550781 392.089844 " fill-opacity="1" fill-rule="nonzero"/><g clip-path="url(#bf28b6bd3a)"><path fill="#d61d2b" d="M 90.777344 438.734375 L 91.210938 438.636719 C 91.558594 438.550781 91.898438 438.445312 92.226562 438.320312 L 92.640625 438.15625 C 92.886719 438.046875 93.121094 437.917969 93.351562 437.785156 C 93.527344 437.6875 93.710938 437.597656 93.871094 437.488281 L 94.0625 437.339844 C 94.382812 437.113281 94.683594 436.867188 94.96875 436.59375 L 95.335938 436.210938 C 95.542969 435.988281 95.738281 435.753906 95.917969 435.511719 L 96.234375 435.070312 C 96.480469 434.695312 96.699219 434.304688 96.882812 433.894531 L 96.882812 433.890625 C 95.921875 434.28125 94.878906 434.507812 93.785156 434.507812 C 89.226562 434.507812 85.492188 430.785156 85.492188 426.238281 L 85.492188 374.316406 C 85.492188 373.167969 85.742188 372.078125 86.167969 371.082031 L 86.183594 371.046875 C 85.984375 371.125 85.796875 371.234375 85.601562 371.328125 L 85.203125 371.527344 L 84.914062 371.703125 C 84.726562 371.824219 84.542969 371.953125 84.355469 372.089844 C 84.148438 372.246094 83.945312 372.414062 83.75 372.589844 L 83.300781 373.007812 C 82.992188 373.328125 82.703125 373.667969 82.449219 374.039062 L 82.273438 374.328125 C 82.078125 374.648438 81.898438 374.96875 81.738281 375.308594 L 81.554688 375.765625 C 81.429688 376.085938 81.328125 376.417969 81.246094 376.75 L 81.140625 377.199219 C 81.050781 377.6875 80.988281 378.1875 80.988281 378.699219 L 80.988281 430.617188 C 80.988281 433.683594 82.703125 436.34375 85.203125 437.769531 C 86.414062 438.460938 87.792969 438.886719 89.28125 438.886719 C 89.789062 438.886719 90.289062 438.824219 90.777344 438.734375 " fill-opacity="1" fill-rule="nonzero"/></g><g clip-path="url(#a92358ada7)"><path fill="#f27c1e" d="M 581.074219 337.609375 C 598.082031 337.609375 615.085938 337.609375 632.097656 337.609375 C 633.484375 337.609375 634.339844 341.726562 632.597656 341.726562 C 630.15625 341.726562 627.710938 341.726562 625.273438 341.726562 C 608.261719 341.726562 591.253906 341.726562 574.246094 341.726562 C 572.855469 341.726562 572 337.609375 573.746094 337.609375 C 576.1875 337.609375 578.628906 337.609375 581.074219 337.609375 Z M 564.710938 354.496094 C 574.769531 349.871094 585.820312 347.308594 597.425781 347.308594 C 643.957031 347.308594 681.679688 388.457031 681.679688 439.21875 C 681.679688 440.316406 681.617188 441.398438 681.578125 442.488281 C 692.972656 432.917969 701.929688 420.992188 708.597656 407.699219 C 709.46875 405.960938 711.257812 409.71875 710.636719 410.960938 C 703.480469 425.226562 693.699219 437.941406 681.257812 447.902344 C 680.800781 453.148438 679.980469 458.277344 678.753906 463.230469 L 678.753906 463.238281 C 679.757812 462.578125 680.769531 461.890625 681.789062 461.175781 L 681.9375 461.074219 C 682.910156 460.394531 683.886719 459.683594 684.871094 458.953125 L 685.171875 458.730469 C 686.101562 458.035156 687.039062 457.3125 687.976562 456.570312 L 688.4375 456.210938 C 689.324219 455.503906 690.214844 454.765625 691.105469 454.015625 C 691.308594 453.84375 691.511719 453.679688 691.714844 453.503906 C 692.554688 452.789062 693.398438 452.039062 694.238281 451.28125 C 694.484375 451.058594 694.738281 450.839844 694.988281 450.613281 C 695.78125 449.886719 696.570312 449.132812 697.359375 448.371094 C 697.65625 448.089844 697.945312 447.816406 698.238281 447.527344 C 698.988281 446.792969 699.726562 446.03125 700.464844 445.261719 C 700.796875 444.925781 701.125 444.59375 701.453125 444.246094 C 702.152344 443.503906 702.84375 442.730469 703.539062 441.957031 C 703.894531 441.558594 704.257812 441.175781 704.609375 440.769531 C 705.265625 440.015625 705.914062 439.230469 706.5625 438.449219 C 706.9375 437.992188 707.320312 437.550781 707.695312 437.082031 C 708.3125 436.320312 708.914062 435.519531 709.523438 434.722656 C 709.910156 434.214844 710.308594 433.71875 710.691406 433.195312 C 711.277344 432.40625 711.839844 431.582031 712.410156 430.765625 C 712.804688 430.207031 713.203125 429.660156 713.589844 429.089844 C 714.140625 428.269531 714.675781 427.410156 715.214844 426.5625 C 715.597656 425.964844 715.988281 425.378906 716.367188 424.765625 C 716.894531 423.902344 717.402344 422.996094 717.917969 422.101562 C 718.28125 421.472656 718.652344 420.863281 719.007812 420.21875 C 719.527344 419.28125 720.019531 418.296875 720.523438 417.328125 C 720.847656 416.699219 721.1875 416.085938 721.503906 415.445312 C 722.035156 414.363281 722.539062 413.238281 723.046875 412.121094 C 723.308594 411.554688 723.578125 411.011719 723.828125 410.433594 C 724.574219 408.722656 725.296875 406.972656 725.976562 405.183594 C 721.242188 392.761719 714.921875 382.316406 707.9375 373.574219 C 705.945312 371.074219 703.894531 368.71875 701.816406 366.492188 C 699.734375 364.265625 697.621094 362.171875 695.496094 360.207031 C 691.242188 356.273438 686.949219 352.847656 682.78125 349.875 C 676.53125 345.421875 670.5625 341.988281 665.457031 339.414062 C 663.757812 338.558594 662.148438 337.796875 660.664062 337.125 C 653.964844 334.09375 649.636719 332.863281 649.636719 332.863281 L 564.710938 332.863281 L 564.710938 354.496094 " fill-opacity="1" fill-rule="nonzero"/></g><path fill="#1f4266" d="M 659.371094 456.894531 C 655.828125 458.652344 652.203125 460.253906 648.523438 461.714844 C 647.203125 462.238281 646.078125 462.910156 644.703125 463.003906 C 637.769531 463.453125 630.648438 463.003906 623.703125 463.003906 C 613.066406 463.003906 602.433594 463.003906 591.800781 463.003906 C 585.144531 463.003906 578.488281 463.003906 571.832031 463.003906 C 570.070312 463.003906 570.914062 467.117188 572.324219 467.117188 C 588.648438 467.117188 604.976562 467.117188 621.300781 467.117188 C 629.054688 467.117188 636.808594 467.117188 644.5625 467.117188 C 648.660156 467.117188 652.769531 464.59375 656.429688 462.929688 C 663.535156 459.691406 670.394531 455.863281 676.761719 451.335938 C 678.304688 450.238281 679.792969 449.078125 681.257812 447.902344 C 693.699219 437.941406 703.480469 425.226562 710.636719 410.960938 C 711.257812 409.71875 709.46875 405.960938 708.597656 407.699219 C 701.929688 420.992188 692.972656 432.917969 681.578125 442.488281 C 680.816406 443.125 680.078125 443.785156 679.296875 444.402344 C 673.125 449.265625 666.40625 453.40625 659.371094 456.894531 " fill-opacity="1" fill-rule="nonzero"/><path fill="#1f4266" d="M 574.246094 341.726562 C 591.253906 341.726562 608.261719 341.726562 625.273438 341.726562 C 627.710938 341.726562 630.15625 341.726562 632.597656 341.726562 C 634.339844 341.726562 633.484375 337.609375 632.097656 337.609375 C 615.085938 337.609375 598.082031 337.609375 581.074219 337.609375 C 578.628906 337.609375 576.1875 337.609375 573.746094 337.609375 C 572 337.609375 572.855469 341.726562 574.246094 341.726562 " fill-opacity="1" fill-rule="nonzero"/><path fill="#1f4266" d="M 194.152344 392.058594 C 186.246094 392.058594 178.335938 392.058594 170.429688 392.058594 C 169.3125 392.058594 168.191406 392.058594 167.074219 392.058594 C 165.910156 392.058594 166.484375 394.804688 167.410156 394.804688 C 175.320312 394.804688 183.226562 394.804688 191.132812 394.804688 C 192.25 394.804688 193.371094 394.804688 194.488281 394.804688 C 195.648438 394.804688 195.078125 392.058594 194.152344 392.058594 " fill-opacity="1" fill-rule="nonzero"/><path fill="#1f4266" d="M 88.484375 421.21875 C 88.484375 422.808594 88.484375 424.394531 88.484375 425.984375 C 88.484375 427.039062 90.074219 428.886719 90.074219 427.042969 C 90.074219 415.804688 90.074219 404.570312 90.074219 393.332031 C 90.074219 391.746094 90.074219 390.15625 90.074219 388.566406 C 90.074219 387.515625 88.484375 385.667969 88.484375 387.511719 C 88.484375 398.746094 88.484375 409.984375 88.484375 421.21875 " fill-opacity="1" fill-rule="nonzero"/><path fill="#1f4266" d="M 213.511719 409.070312 C 211.769531 409.070312 212.625 413.183594 214.011719 413.183594 C 222.597656 413.183594 231.183594 413.183594 239.773438 413.183594 C 260.382812 413.183594 280.996094 413.183594 301.609375 413.183594 C 326.535156 413.183594 351.464844 413.183594 376.390625 413.183594 C 397.867188 413.183594 419.34375 413.183594 440.816406 413.183594 C 447.917969 413.183594 455.015625 413.183594 462.117188 413.183594 C 465.441406 413.183594 468.867188 413.414062 472.1875 413.183594 L 472.644531 413.183594 C 474.382812 413.183594 473.53125 409.070312 472.140625 409.070312 C 463.554688 409.070312 454.96875 409.070312 446.386719 409.070312 C 425.773438 409.070312 405.160156 409.070312 384.546875 409.070312 C 359.617188 409.070312 334.6875 409.070312 309.761719 409.070312 C 288.289062 409.070312 266.8125 409.070312 245.335938 409.070312 C 238.238281 409.070312 231.136719 409.070312 224.035156 409.070312 C 220.710938 409.070312 217.289062 408.839844 213.964844 409.070312 L 213.511719 409.070312 " fill-opacity="1" fill-rule="nonzero"/><path fill="#fcd352" d="M 627.625 450.359375 C 600.402344 442.203125 583.761719 422.367188 578.566406 415.355469 C 578.007812 414.601562 576.808594 414.996094 576.808594 415.9375 L 576.808594 451.277344 C 576.808594 451.816406 577.25 452.25 577.785156 452.25 L 627.351562 452.25 C 628.476562 452.25 628.703125 450.679688 627.625 450.359375 " fill-opacity="1" fill-rule="nonzero"/></svg>