<svg xmlns="http://www.w3.org/2000/svg" xmlns:xlink="http://www.w3.org/1999/xlink" width="100%" zoomAndPan="magnify" viewBox="0 0 810 809.999993" height="100%" preserveAspectRatio="xMidYMid meet" version="1.0"><defs><clipPath id="373c527fd4"><path d="M 91.769531 191.839844 L 718.292969 191.839844 L 718.292969 617.839844 L 91.769531 617.839844 Z M 91.769531 191.839844 " clip-rule="nonzero"/></clipPath></defs><path fill="#d14131" d="M 651.042969 349.976562 L 651.042969 326.960938 L 602.59375 326.960938 L 601.972656 313.902344 C 598.445312 317.269531 594.027344 319.160156 588.988281 320.21875 L 586.507812 287.179688 L 593.289062 287.179688 L 592.554688 271.332031 L 649.414062 271.332031 C 658.640625 256.347656 667.90625 241.371094 677.128906 226.386719 C 530.109375 246.882812 279.953125 246.882812 132.894531 226.386719 C 142.160156 241.371094 151.40625 256.347656 160.65625 271.332031 L 217.5 271.332031 L 216.765625 287.179688 L 223.550781 287.179688 L 221.078125 320.21875 C 216.03125 319.160156 211.609375 317.269531 208.070312 313.902344 L 207.460938 326.960938 L 159.011719 326.960938 L 159.011719 349.976562 L 218.851562 349.976562 L 201.628906 579.773438 L 251.25 579.773438 L 261.964844 349.976562 L 548.097656 349.976562 L 558.792969 579.773438 L 608.445312 579.773438 L 591.199219 349.976562 Z M 273.308594 271.332031 L 389.472656 271.332031 L 389.472656 326.960938 L 278.160156 326.960938 L 278.769531 313.902344 C 274.460938 317.671875 269.21875 319.585938 263.332031 320.558594 L 264.890625 287.179688 L 272.566406 287.179688 Z M 536.738281 271.332031 L 537.476562 287.179688 L 545.1875 287.179688 L 546.738281 320.558594 C 540.847656 319.585938 535.617188 317.671875 531.273438 313.902344 L 531.894531 326.960938 L 420.585938 326.960938 L 420.585938 271.332031 L 536.738281 271.332031 " fill-opacity="1" fill-rule="evenodd"/><g clip-path="url(#373c527fd4)"><path fill="#1a1a1a" d="M 703.097656 226.859375 L 718.292969 191.839844 C 549.027344 214.746094 261.035156 214.746094 91.769531 191.839844 L 106.960938 226.859375 C 270.625 249.230469 539.410156 249.230469 703.09375 226.859375 Z M 608.757812 539.660156 L 553.019531 539.660156 L 553.988281 617.84375 L 617.246094 617.84375 Z M 201.308594 539.660156 L 257.019531 539.660156 L 256.0625 617.84375 L 192.820312 617.84375 L 201.308594 539.660156 " fill-opacity="1" fill-rule="evenodd"/></g></svg>